<svg width="36" height="36" viewBox="0 0 36 36" fill="none" xmlns="http://www.w3.org/2000/svg">
<path d="M18.0007 0.545471C13.2605 0.545471 12.6656 0.566199 10.8039 0.650926C8.94573 0.736017 7.67741 1.0302 6.56762 1.46183C5.41966 1.90765 4.44587 2.50402 3.47571 3.47456C2.50483 4.44474 1.90849 5.41856 1.46123 6.5662C1.02852 7.67638 0.733979 8.94511 0.650345 10.8026C0.567075 12.6644 0.545258 13.2597 0.545258 18C0.545258 22.7404 0.566348 23.3335 0.650709 25.1953C0.736161 27.0535 1.03033 28.3218 1.46159 29.4317C1.90776 30.5797 2.50411 31.5535 3.47462 32.5237C4.44441 33.4946 5.4182 34.0924 6.56544 34.5382C7.67595 34.9698 8.94464 35.264 10.8024 35.3491C12.6642 35.4338 13.2587 35.4546 17.9985 35.4546C22.7391 35.4546 23.3322 35.4338 25.194 35.3491C27.0521 35.264 28.3219 34.9698 29.4324 34.5382C30.58 34.0924 31.5523 33.4946 32.5221 32.5237C33.493 31.5535 34.0893 30.5797 34.5366 29.432C34.9657 28.3218 35.2602 27.0531 35.3475 25.1957C35.4311 23.3338 35.4529 22.7404 35.4529 18C35.4529 13.2597 35.4311 12.6647 35.3475 10.8029C35.2602 8.94474 34.9657 7.67638 34.5366 6.56656C34.0893 5.41856 33.493 4.44474 32.5221 3.47456C31.5512 2.50365 30.5803 1.90729 29.4313 1.46183C28.3186 1.0302 27.0495 0.736017 25.1914 0.650926C23.3297 0.566199 22.7369 0.545471 17.9953 0.545471H18.0007ZM16.435 3.69093C16.8997 3.6902 17.4182 3.69093 18.0007 3.69093C22.661 3.69093 23.2133 3.70765 25.0536 3.79129C26.7554 3.86911 27.679 4.15347 28.2942 4.39238C29.1088 4.70874 29.6895 5.08693 30.3 5.69783C30.9109 6.30874 31.2891 6.89056 31.6061 7.70511C31.845 8.31965 32.1298 9.24329 32.2072 10.9451C32.2908 12.7851 32.309 13.3378 32.309 17.996C32.309 22.6542 32.2908 23.2069 32.2072 25.0469C32.1294 26.7487 31.845 27.6724 31.6061 28.2869C31.2898 29.1015 30.9109 29.6815 30.3 30.292C29.6891 30.9029 29.1091 31.2811 28.2942 31.5975C27.6797 31.8375 26.7554 32.1211 25.0536 32.1989C23.2137 32.2826 22.661 32.3007 18.0007 32.3007C13.3401 32.3007 12.7878 32.2826 10.9479 32.1989C9.24609 32.1204 8.32248 31.836 7.70686 31.5971C6.89234 31.2807 6.31054 30.9026 5.69965 30.2917C5.08876 29.6807 4.71059 29.1004 4.3935 28.2855C4.1546 27.6709 3.86988 26.7473 3.79243 25.0455C3.7088 23.2055 3.69207 22.6527 3.69207 17.9917C3.69207 13.3306 3.7088 12.7807 3.79243 10.9407C3.87025 9.23893 4.1546 8.31529 4.3935 7.70002C4.70986 6.88547 5.08876 6.30365 5.69965 5.69274C6.31054 5.08183 6.89234 4.70365 7.70686 4.38656C8.32211 4.14656 9.24609 3.86293 10.9479 3.78474C12.558 3.71202 13.182 3.6902 16.435 3.68656V3.69093ZM27.3175 6.58911C26.1612 6.58911 25.2231 7.5262 25.2231 8.68292C25.2231 9.83929 26.1612 10.7775 27.3175 10.7775C28.4739 10.7775 29.412 9.83929 29.412 8.68292C29.412 7.52656 28.4739 6.58838 27.3175 6.58838V6.58911ZM18.0007 9.03638C13.0507 9.03638 9.03736 13.0498 9.03736 18C9.03736 22.9502 13.0507 26.9618 18.0007 26.9618C22.9508 26.9618 26.9626 22.9502 26.9626 18C26.9626 13.0498 22.9504 9.03638 18.0004 9.03638H18.0007ZM18.0007 12.1818C21.2137 12.1818 23.8187 14.7866 23.8187 18C23.8187 21.2131 21.2137 23.8182 18.0007 23.8182C14.7874 23.8182 12.1827 21.2131 12.1827 18C12.1827 14.7866 14.7874 12.1818 18.0007 12.1818V12.1818Z" fill="#E6E6E6"/>
</svg>
