<svg width="48" height="48" viewBox="0 0 48 48" fill="none" xmlns="http://www.w3.org/2000/svg">
<path d="M36.651 11.226L7.75273 22.3721C5.78038 23.1634 5.79208 24.2635 7.39322 24.754L14.6005 27.0036L17.3582 35.4584C17.6935 36.3838 17.5282 36.7508 18.4999 36.7508C19.2499 36.7508 19.5825 36.4089 20.0002 36.0009C20.2658 35.741 21.8428 34.2078 23.6037 32.4958L31.1006 38.0349C32.4801 38.796 33.4762 38.4017 33.8198 36.7536L38.7409 13.5632C39.2448 11.5432 37.9708 10.6269 36.651 11.226ZM15.7316 26.4868L31.9769 16.2375C32.7879 15.7457 33.5315 16.0101 32.921 16.552L19.0108 29.1026L18.4691 34.8794L15.7316 26.4868Z" fill="#E6E6E6"/>
</svg>
