<svg width="37" height="38" viewBox="0 0 37 38" fill="none" xmlns="http://www.w3.org/2000/svg">
<path fill-rule="evenodd" clip-rule="evenodd" d="M19.6424 0.916804C24.1 1.13588 28.2536 2.97407 31.4261 6.14871C34.8101 9.53483 36.6728 14.0359 36.671 18.8226C36.6669 28.7003 28.6256 36.7373 18.7473 36.7373C15.0325 36.7373 12.0805 35.596 10.1744 34.5568L0.672729 37.048L3.21561 27.7646C1.64708 25.0477 0.821726 21.9659 0.823019 18.8084C0.826985 8.93086 8.86761 0.894653 18.747 0.894653L19.6424 0.916804ZM10.6146 31.3136L11.1587 31.6362C13.446 32.9929 16.0679 33.7108 18.7411 33.7118H18.7472C26.9584 33.7118 33.6413 27.0319 33.6446 18.8216C33.6462 14.8429 32.0981 11.1018 29.2854 8.28733C26.4726 5.47269 22.7323 3.92174 18.7531 3.92045C10.5356 3.92045 3.85256 10.5996 3.84928 18.8094C3.84816 21.623 4.63574 24.3631 6.12702 26.7337L6.48123 27.2972L4.97625 32.7919L10.6146 31.3136ZM27.7771 23.0827C27.6651 22.8958 27.3666 22.7839 26.9188 22.5598C26.4709 22.3357 24.2691 21.2528 23.8585 21.1033C23.448 20.9541 23.1494 20.8795 22.8509 21.3275C22.5524 21.7755 21.6941 22.7839 21.4328 23.0827C21.1716 23.3814 20.9103 23.4188 20.4625 23.1947C20.0147 22.9707 18.5716 22.4979 16.861 20.9729C15.5296 19.7859 14.6308 18.3201 14.3695 17.872C14.1083 17.4239 14.3416 17.1816 14.5658 16.9584C14.7673 16.7578 15.0138 16.4356 15.2377 16.1742C15.4616 15.9129 15.5362 15.726 15.6856 15.4274C15.8348 15.1286 15.7601 14.8673 15.6482 14.6432C15.5362 14.4191 14.6406 12.2157 14.2674 11.3194C13.9038 10.4466 13.5346 10.5648 13.2597 10.551C12.9988 10.5381 12.6999 10.5352 12.4014 10.5352C12.1028 10.5352 11.6176 10.6472 11.2071 11.0954C10.7966 11.5435 9.63959 12.6266 9.63959 14.8297C9.63959 17.0332 11.2444 19.1615 11.4683 19.4603C11.6923 19.7592 14.6264 24.2804 19.119 26.2195C20.1875 26.6807 21.0217 26.9561 21.6721 27.1624C22.745 27.5031 23.7213 27.4551 24.493 27.3398C25.3534 27.2113 27.1427 26.2569 27.5159 25.2114C27.8891 24.1656 27.8891 23.2694 27.7771 23.0827Z" fill="#E6E6E6"/>
</svg>
